<svg height='{{ .size }}' width='{{ .size }}'  fill="#333333" xmlns="http://www.w3.org/2000/svg" xmlns:xlink="http://www.w3.org/1999/xlink" version="1.1" x="0px" y="0px" viewBox="0 0 100 92.308" enable-background="new 0 0 100 92.308" xml:space="preserve"><path d="M95.371,62.356c0-25.017-20.354-45.371-45.371-45.371c-25.017,0-45.371,20.354-45.371,45.371h6.98  c0-21.164,17.224-38.391,38.391-38.391c21.163,0,38.392,17.227,38.392,38.391H95.371z"></path><path d="M84.076,62.356c0-18.79-15.285-34.076-34.076-34.076c-18.789,0-34.076,15.286-34.076,34.076h6.815  c0-15.031,12.229-27.261,27.261-27.261c15.032,0,27.261,12.229,27.261,27.261H84.076z"></path><path d="M72.687,62.356C72.687,49.849,62.506,39.67,50,39.67c-12.509,0-22.686,10.179-22.686,22.686h6.482  c0-8.935,7.269-16.205,16.204-16.205c8.934,0,16.205,7.27,16.205,16.205H72.687z"></path></svg>
