<svg xmlns="http://www.w3.org/2000/svg" xmlns:xlink="http://www.w3.org/1999/xlink" width="{{ .size }}" height="{{ .size }}" viewBox="0 0 100 100"><g transform="translate(50 50) scale(-0.69 0.69) rotate(-180) translate(-50 -50)" style="fill:#333333"><svg fill="#333333" xmlns="http://www.w3.org/2000/svg" data-name="Layer 1" viewBox="0 0 100 100" x="0px" y="0px"><path d="M91.31824,88H8.67609a3.50422,3.50422,0,1,0,0,7H91.31824a3.50108,3.50108,0,0,0,3.14825-5.307A3.71818,3.71818,0,0,0,91.31824,88Z"></path><path d="M8.67609,12H38.78156a3.50106,3.50106,0,0,0,3.14825-5.307A3.71818,3.71818,0,0,0,38.78156,5H8.67609A3.59132,3.59132,0,0,0,5,8.5,3.59132,3.59132,0,0,0,8.67609,12Z"></path><path d="M8.67609,33H52.06793a3.50109,3.50109,0,0,0,3.14826-5.307A3.71819,3.71819,0,0,0,52.06793,26H8.67609a3.50422,3.50422,0,1,0,0,7Z"></path><path d="M8.67609,54H65.36493a3.50109,3.50109,0,0,0,3.14825-5.30707A3.71826,3.71826,0,0,0,65.36493,47H8.67609a3.50422,3.50422,0,1,0,0,7Z"></path><path d="M8.67609,75H78.65936a3.50118,3.50118,0,0,0,3.15021-5.30389A3.7178,3.7178,0,0,0,78.65936,68H8.67609a3.50422,3.50422,0,1,0,0,7Z"></path></svg></g></svg>
